<svg width="22" height="21" fill="none" xmlns="http://www.w3.org/2000/svg"><path fill-rule="evenodd" clip-rule="evenodd" d="M11 .895C5.417.895.895 5.423.895 11c0 4.466 2.897 8.25 6.91 9.59.503.093.689-.217.689-.49 0-.242-.006-.874-.013-1.718-2.81.608-3.405-1.352-3.405-1.352-.46-1.167-1.123-1.477-1.123-1.477-.918-.626.068-.614.068-.614 1.011.075 1.551 1.042 1.551 1.042.9 1.545 2.364 1.098 2.94.838.094-.652.354-1.098.64-1.353-2.246-.254-4.603-1.122-4.603-4.993 0-1.104.39-2.004 1.042-2.711-.106-.254-.453-1.284.099-2.674 0 0 .85-.273 2.78 1.036A9.807 9.807 0 0 1 11 5.783a9.843 9.843 0 0 1 2.531.341c1.93-1.309 2.78-1.036 2.78-1.036.551 1.39.204 2.42.098 2.674.646.707 1.036 1.607 1.036 2.71 0 3.884-2.363 4.734-4.615 4.988.36.31.689.93.689 1.874 0 1.352-.013 2.438-.013 2.773 0 .273.18.583.695.483 4.014-1.34 6.904-5.124 6.904-9.584C21.105 5.423 16.583.895 11 .895Z" fill="#191717"/></svg>